<svg xmlns="http://www.w3.org/2000/svg" viewBox="0 0 326 90"><defs><linearGradient id="b8d56c26-1973-41dc-bfd6-c2efdbc9a491" data-name="Gradiente sem nome 18" x1="-4974.36" y1="-446.57" x2="-4782.36" y2="-446.57" gradientTransform="matrix(-1 0 0 1 -4782.48 491.52)" gradientUnits="userSpaceOnUse"><stop offset="0" stop-color="#00cfff" stop-opacity="0"/><stop offset=".14" stop-color="#00cfff" stop-opacity=".01"/><stop offset=".26" stop-color="#00cfff" stop-opacity=".06"/><stop offset=".39" stop-color="#00cfff" stop-opacity=".13"/><stop offset=".51" stop-color="#00cfff" stop-opacity=".24"/><stop offset=".63" stop-color="#00cfff" stop-opacity=".37"/><stop offset=".74" stop-color="#00cfff" stop-opacity=".53"/><stop offset=".86" stop-color="#00cfff" stop-opacity=".73"/><stop offset=".97" stop-color="#00cfff" stop-opacity=".94"/><stop offset="1" stop-color="#00cfff"/></linearGradient><style>.ab19f986-5d94-44ef-b9ca-403c246b44d3{fill:#fff}</style></defs><g id="a28ff88a-1ffe-48ca-abf7-cdf3c3c37773" data-name="Camada 1"><path class="ab19f986-5d94-44ef-b9ca-403c246b44d3" d="M237.16 70.43h-13.61v-13.6h-5.63v13.6h-13.61v5.63h13.61v13.61h5.63V76.06h13.61v-5.63zM281.74 70.43h-13.61v-13.6h-5.63v13.6h-13.61v5.63h13.61v13.61h5.63V76.06h13.61v-5.63zM326.31 70.43h-13.6v-13.6h-5.64v13.6h-13.6v5.63h13.6v13.61h5.64V76.06h13.6v-5.63z"/><path d="M162.07 89.63a66.54 66.54 0 00-132.37 0H-.12a96.25 96.25 0 01192 0z" fill="url(#b8d56c26-1973-41dc-bfd6-c2efdbc9a491)"/></g></svg>