<svg xmlns="http://www.w3.org/2000/svg" xmlns:xlink="http://www.w3.org/1999/xlink" viewBox="0 0 1100.15 195.13"><defs><linearGradient id="bd6391fe-58a0-406f-98d2-bf02db79deb2" data-name="Gradiente sem nome 26" x1="-5628.94" y1="-342.21" x2="-5436.94" y2="-342.21" gradientTransform="matrix(-1 0 0 1 -4782.5 491.52)" gradientUnits="userSpaceOnUse"><stop offset="0" stop-color="#00dbff" stop-opacity="0"/><stop offset=".14" stop-color="#00dbff" stop-opacity=".01"/><stop offset=".26" stop-color="#00daff" stop-opacity=".06"/><stop offset=".39" stop-color="#00d9ff" stop-opacity=".13"/><stop offset=".51" stop-color="#00d8ff" stop-opacity=".24"/><stop offset=".63" stop-color="#00d7ff" stop-opacity=".37"/><stop offset=".74" stop-color="#00d5ff" stop-opacity=".53"/><stop offset=".86" stop-color="#00d2ff" stop-opacity=".73"/><stop offset=".97" stop-color="#00d0ff" stop-opacity=".94"/><stop offset="1" stop-color="#00cfff"/></linearGradient><linearGradient id="eae9852d-0d24-41b8-bfe7-1561488b3ee9" x1="-5436.76" y1="-342.21" x2="-5244.76" y2="-342.21" xlink:href="#bd6391fe-58a0-406f-98d2-bf02db79deb2"/><linearGradient id="a2c79533-3dda-43e4-8dff-bf4918606141" data-name="Gradiente sem nome 23" x1="1" y1="97.56" x2="240.15" y2="97.56" gradientUnits="userSpaceOnUse"><stop offset="0" stop-color="#00dbff" stop-opacity="0"/><stop offset="1" stop-color="#00dbff"/></linearGradient><style>.e1797332-5894-4bc4-945f-6fc0dc42e26f{fill:#fff}.ad4dc103-b788-4d9d-8aaa-57b371510d2c{fill:#1753d2}</style></defs><g id="f01f7138-74b8-4baa-8153-38815b987c23" data-name="Camada 1"><path class="e1797332-5894-4bc4-945f-6fc0dc42e26f" d="M321.38 186.04h9.34v9.34h-9.34zM340.06 186.04h9.34v9.34h-9.34zM358.75 186.04h9.34v9.34h-9.34zM377.43 186.04h9.34v9.34h-9.34zM396.11 186.04h9.34v9.34h-9.34z"/><path d="M816.63 194a66.55 66.55 0 00-132.38 0h-29.81a96.25 96.25 0 01192 0z" fill="url(#bd6391fe-58a0-406f-98d2-bf02db79deb2)"/><path d="M624.44 194a66.54 66.54 0 00-132.37 0h-29.81a96.25 96.25 0 01192 0z" fill="url(#eae9852d-0d24-41b8-bfe7-1561488b3ee9)"/><path class="e1797332-5894-4bc4-945f-6fc0dc42e26f" d="M1011.28 176.14h-13.6v-13.61h-5.63v13.61h-13.61v5.63h13.61v13.61h5.63v-13.61h13.6v-5.63zM1055.86 176.14h-13.61v-13.61h-5.63v13.61h-13.6v5.63h13.6v13.61h5.63v-13.61h13.61v-5.63zM1100.44 176.14h-13.61v-13.61h-5.63v13.61h-13.61v5.63h13.61v13.61h5.63v-13.61h13.61v-5.63z"/><path d="M45 0H1v195.13h239.15C240.15 87.36 152.79 0 45 0z" fill="url(#a2c79533-3dda-43e4-8dff-bf4918606141)"/><path class="e1797332-5894-4bc4-945f-6fc0dc42e26f" d="M230.76 135.18c.21.67.43 1.33.64 2h71.37v55.95h-62.65v2h64.62v-59.95z"/><g><path class="e1797332-5894-4bc4-945f-6fc0dc42e26f" d="M15.34-7.67h2v202.79h-2zM30.96-7.67h2v202.79h-2zM46.58-7.67h2v202.79h-2zM-.28-7.67h2v202.79h-2z"/></g><path class="ad4dc103-b788-4d9d-8aaa-57b371510d2c" d="M95.69 181a31.39 31.39 0 1131.39-31.39A31.42 31.42 0 0195.69 181zm0-59.78a28.39 28.39 0 1028.39 28.39 28.43 28.43 0 00-28.39-28.36zM95.69 103.77a31.39 31.39 0 1131.39-31.38 31.42 31.42 0 01-31.39 31.38zm0-59.77a28.39 28.39 0 1028.39 28.39A28.42 28.42 0 0095.69 44z"/></g></svg>