<svg xmlns="http://www.w3.org/2000/svg" xmlns:xlink="http://www.w3.org/1999/xlink" viewBox="0 0 1100.47 72.74"><defs><linearGradient id="f6aca1b4-4adf-491f-8969-7bf0e14bff06" data-name="Gradiente sem nome 26" x1="-5896.86" y1="34.39" x2="-5038.53" y2="34.39" gradientTransform="translate(6139)" gradientUnits="userSpaceOnUse"><stop offset="0" stop-color="#00dbff" stop-opacity="0"/><stop offset=".14" stop-color="#00dbff" stop-opacity=".01"/><stop offset=".26" stop-color="#00daff" stop-opacity=".06"/><stop offset=".39" stop-color="#00d9ff" stop-opacity=".13"/><stop offset=".51" stop-color="#00d8ff" stop-opacity=".24"/><stop offset=".63" stop-color="#00d7ff" stop-opacity=".37"/><stop offset=".74" stop-color="#00d5ff" stop-opacity=".53"/><stop offset=".86" stop-color="#00d2ff" stop-opacity=".73"/><stop offset=".97" stop-color="#00d0ff" stop-opacity=".94"/><stop offset="1" stop-color="#00cfff"/></linearGradient><linearGradient id="b3095038-8d51-4efa-9f79-04e8107b4eec" x1="-5896.86" y1="52.57" x2="-5038.53" y2="52.57" xlink:href="#f6aca1b4-4adf-491f-8969-7bf0e14bff06"/><linearGradient id="fa5dd1bc-9851-4fc6-96dd-441592210d81" x1="-5896.86" y1="70.18" x2="-5038.53" y2="70.18" xlink:href="#f6aca1b4-4adf-491f-8969-7bf0e14bff06"/><style>.add5b37e-3bf4-4b75-8576-f2d2276460f8{fill:#fff}</style></defs><g id="b2f4c1e1-eb7c-4ff1-90c0-6dbc9680e8fa" data-name="Camada 1"><path class="add5b37e-3bf4-4b75-8576-f2d2276460f8" d="M1016.39 0h9.34v9.34h-9.34zM1035.08 0h9.34v9.34h-9.34zM1053.76 0h9.34v9.34h-9.34zM1072.44 0h9.34v9.34h-9.34zM1091.12 0h9.34v9.34h-9.34z"/><g><path class="add5b37e-3bf4-4b75-8576-f2d2276460f8" d="M22.65 49.58a12.86 12.86 0 1112.86-12.86 12.88 12.88 0 01-12.86 12.86zm0-23.72a10.86 10.86 0 1010.86 10.86 10.88 10.88 0 00-10.86-10.86zM65.46 49.58a12.86 12.86 0 1112.87-12.86 12.88 12.88 0 01-12.87 12.86zm0-23.72a10.86 10.86 0 1010.87 10.86 10.87 10.87 0 00-10.87-10.86zM108.28 49.58a12.86 12.86 0 1112.86-12.86 12.88 12.88 0 01-12.86 12.86zm0-23.72a10.86 10.86 0 1010.86 10.86 10.87 10.87 0 00-10.86-10.86z"/><path class="add5b37e-3bf4-4b75-8576-f2d2276460f8" d="M42.9 69.9a20.45 20.45 0 00-40.9 0H0a22.45 22.45 0 0144.9 0z"/><path class="add5b37e-3bf4-4b75-8576-f2d2276460f8" d="M85.81 69.9a20.45 20.45 0 00-40.9 0h-2a22.45 22.45 0 0144.9 0z"/><path class="add5b37e-3bf4-4b75-8576-f2d2276460f8" d="M128.72 69.9a20.45 20.45 0 00-40.9 0h-2a22.45 22.45 0 0144.9 0z"/></g><path fill="url(#f6aca1b4-4adf-491f-8969-7bf0e14bff06)" d="M242.14 31.84h858.33v5.11H242.14z"/><path fill="url(#b3095038-8d51-4efa-9f79-04e8107b4eec)" d="M242.14 50.02h858.33v5.11H242.14z"/><path fill="url(#fa5dd1bc-9851-4fc6-96dd-441592210d81)" d="M242.14 67.63h858.33v5.11H242.14z"/></g></svg>